<?xml version="1.0" standalone="no"?>
<!DOCTYPE svg PUBLIC "-//W3C//DTD SVG 20010904//EN"
 "http://www.w3.org/TR/2001/REC-SVG-20010904/DTD/svg10.dtd">
<svg version="1.0" xmlns="http://www.w3.org/2000/svg"
 width="660.000000pt" height="660.000000pt" viewBox="0 0 660.000000 660.000000"
 preserveAspectRatio="xMidYMid meet">

<g transform="translate(0.000000,660.000000) scale(0.100000,-0.100000)"
fill="#000000" stroke="none">
<path d="M2100 5450 l0 -50 250 0 250 0 0 -99 c0 -68 4 -101 12 -103 9 -3 9
-6 0 -12 -7 -4 -12 -2 -12 3 0 14 -90 14 -110 1 -8 -5 -10 -10 -4 -10 6 0 11
-17 11 -38 l0 -39 -168 -1 c-149 -1 -169 1 -178 16 -10 16 -10 16 -11 0 0 -20
-2 -21 -24 -12 -14 5 -16 28 -16 150 l0 144 -50 0 -50 0 0 -249 0 -250 -47 -3
-48 -3 -3 -47 -3 -48 -50 0 -49 0 0 -50 0 -50 -50 0 -50 0 0 -150 0 -150 50 0
50 0 0 -200 0 -200 -50 0 -50 0 0 -150 0 -150 -50 0 -50 0 0 -150 0 -150 -50
0 -50 0 0 -200 0 -200 -101 0 -100 0 3 -52 3 -51 248 2 247 2 0 -150 0 -151
-50 0 -50 0 0 -50 0 -50 -250 0 -250 0 0 105 0 105 103 2 102 2 -105 6 -105 6
105 2 c73 2 100 5 90 12 -13 9 -13 11 0 20 12 7 10 9 -7 8 -12 -1 -19 -7 -16
-15 4 -10 -15 -13 -81 -13 l-86 0 0 31 c0 31 0 31 49 27 48 -3 49 -2 53 27 7
67 1 75 -53 75 l-49 0 0 -50 0 -50 -50 0 -50 0 0 -150 0 -150 50 0 50 0 0 -50
0 -50 50 0 50 0 0 -150 0 -150 -50 0 -50 0 0 -200 0 -200 50 0 50 0 0 -50 0
-50 50 0 50 0 0 -50 0 -50 50 0 50 0 0 -50 0 -50 100 0 100 0 0 -50 0 -50 300
0 300 0 0 50 0 50 500 0 500 0 0 -50 0 -50 350 0 350 0 0 -50 0 -50 350 0 350
0 0 50 0 50 50 0 50 0 0 550 0 550 50 0 50 0 0 200 0 200 50 0 50 0 0 250 0
250 50 0 50 0 0 250 0 250 50 0 50 0 0 200 0 200 50 0 50 0 0 150 0 150 50 0
50 0 0 250 0 250 -50 0 -50 0 0 50 0 50 -100 0 -100 0 0 50 0 50 -50 0 -50 0
0 50 0 50 -50 0 -50 0 0 50 0 50 -100 0 -100 0 0 50 0 50 -300 0 -300 0 0 -50
0 -50 -300 0 -300 0 0 -49 0 -50 -52 -3 -51 -3 0 -47 1 -48 -49 0 -48 0 -3
-47 -3 -48 -47 -3 -48 -3 0 -50 0 -49 -49 0 -50 0 -3 -47 c-3 -54 6 -50 -125
-52 l-73 -1 0 -50 0 -50 400 0 400 0 0 -50 0 -50 -150 0 -150 0 0 -50 0 -50
-100 0 -100 0 0 50 0 50 -100 0 -100 0 0 -50 0 -50 -49 0 -50 0 -3 -47 -3 -48
-47 -3 -48 -3 0 -50 0 -49 -52 0 -53 0 3 -50 4 -50 -51 0 -51 0 0 50 0 50 -50
0 -50 0 0 -50 0 -50 -50 0 -50 0 0 -50 0 -50 -50 0 -50 0 0 -100 0 -100 -50 0
-50 0 0 -250 0 -250 23 -1 c12 -1 34 0 50 1 l27 2 0 -151 0 -151 50 0 50 0 0
-50 0 -50 50 0 50 0 0 -50 0 -50 50 0 50 0 0 -50 0 -50 50 0 50 0 0 -50 0 -50
100 0 100 0 0 -50 0 -50 50 0 50 0 0 -50 0 -50 -200 0 -200 0 0 48 0 49 -52
-1 -52 0 0 50 -1 49 -47 3 -48 3 0 50 0 49 -50 0 -50 0 0 -150 0 -150 50 0 50
0 0 -50 0 -50 298 2 297 3 3 48 3 47 50 0 49 0 0 44 c0 51 -8 59 -59 60 -35 1
-36 2 -38 43 l-2 41 42 4 c24 3 45 0 49 -6 13 -19 5 -66 -12 -66 -13 0 -13 -1
0 -10 8 -5 39 -10 68 -10 l52 0 0 50 0 50 -37 0 c-37 0 -87 19 -53 20 13 0 13
1 0 10 -13 9 -13 11 0 20 10 6 11 10 3 10 -23 0 -13 30 12 36 13 3 81 4 150 3
l125 -4 0 30 c0 49 11 75 30 75 10 0 21 -8 23 -17 4 -17 5 -17 6 0 1 10 9 17
21 17 17 0 20 7 20 40 0 22 5 40 11 40 5 0 7 5 4 10 -5 9 264 16 358 10 26 -1
27 0 27 49 l0 50 98 3 97 3 5 55 5 55 40 -1 c30 0 41 4 42 15 0 9 4 51 8 94
l8 77 -52 0 -51 0 0 450 0 450 55 0 c45 0 55 3 56 18 0 15 1 14 8 -2 7 -19 8
-18 14 5 7 22 8 23 21 6 11 -15 15 -15 25 -3 9 11 9 15 -1 19 -10 4 -10 6 0 6
8 1 12 23 12 76 l0 75 64 0 64 0 -2 -87 c-2 -70 1 -91 13 -100 22 -17 37 -16
55 3 13 12 16 41 16 150 l0 134 50 0 50 0 0 -200 0 -200 -50 0 -50 0 0 -250 0
-250 -50 0 -50 0 0 -200 0 -200 -50 0 -50 0 0 -100 0 -100 -50 0 -50 0 0 -50
0 -50 50 0 50 0 0 -99 0 -100 -100 -3 -100 -3 0 53 0 52 51 0 50 0 -3 48 -3
47 -97 3 -98 3 0 -51 0 -50 -100 0 -100 0 0 -50 c0 -48 -1 -50 -27 -51 -70 -3
-68 -1 -69 -46 -1 -30 3 -43 12 -44 8 -1 19 -3 24 -4 6 -1 89 -3 185 -4 l175
-1 0 -50 0 -50 -100 0 -100 0 0 -100 0 -100 -197 -2 -198 -3 -3 -47 -3 -48
-150 0 -149 0 0 -50 0 -50 -150 0 -150 0 0 -50 0 -50 -300 0 -300 0 0 50 0 50
50 0 50 0 0 50 0 50 -100 0 -100 0 0 -50 0 -50 -50 0 -50 0 0 -50 0 -50 -50 0
-50 0 0 99 0 100 48 3 47 3 0 148 c0 91 4 147 10 148 6 0 28 1 50 2 l40 2 3
148 3 147 -51 0 -51 0 3 148 3 147 25 2 c14 0 36 1 50 2 l25 1 -2 97 -1 98
-51 3 -51 3 0 -100 0 -101 -50 0 -50 0 0 -300 0 -300 -50 0 -50 0 0 500 0 500
50 0 50 0 0 150 0 150 50 0 50 0 0 150 0 150 50 0 50 0 0 50 0 50 50 0 50 0 0
150 0 150 50 0 50 0 0 150 0 150 50 0 50 0 0 45 c0 34 4 47 17 52 9 4 18 2 20
-4 3 -7 17 -8 45 -1 22 5 46 7 52 4 6 -2 3 -5 -6 -5 -13 -1 -18 -10 -18 -34 0
-18 5 -38 12 -45 9 -9 8 -12 -5 -12 -13 0 -17 -9 -17 -45 0 -29 -5 -46 -12
-46 -7 -1 -20 -3 -28 -4 -8 -1 -25 -3 -37 -4 -21 -1 -23 -6 -23 -51 l0 -50 50
0 50 0 0 50 0 50 50 0 50 0 0 50 c0 49 -1 50 -30 50 -16 0 -30 4 -30 9 0 5 9
7 20 4 18 -5 20 0 20 37 0 34 -3 41 -16 36 -8 -3 -12 -2 -9 4 3 6 13 10 21 10
8 0 14 5 14 10 0 6 20 10 45 10 43 0 60 12 33 23 -7 3 -3 6 10 6 34 1 16 21
-21 23 -26 1 -24 2 13 7 l45 6 -47 8 c-27 5 -52 5 -58 2 -6 -4 -10 15 -10 50
l0 56 178 -1 c97 0 210 -1 250 0 l72 0 0 50 0 50 -300 0 -300 0 0 50 0 50
-250 0 -250 0 0 -50z m2600 -100 l0 -50 100 0 100 0 0 -350 0 -350 -50 0 -50
0 0 -300 0 -300 -51 0 -50 0 3 -47 3 -48 48 -3 47 -3 0 -50 0 -49 50 0 50 0 0
250 0 250 50 0 50 0 0 51 0 51 50 -4 50 -3 0 53 0 52 -50 0 -50 0 0 250 0 250
49 0 50 0 3 -42 3 -43 48 -3 47 -3 0 -155 0 -154 -50 0 -50 0 0 -50 0 -50 50
0 50 0 0 -49 0 -50 -47 -3 -48 -3 -3 -197 -2 -198 -50 0 -50 0 0 -100 0 -100
-50 0 -51 0 1 -142 c1 -79 1 -191 0 -250 l0 -108 -50 0 -50 0 0 -150 0 -150
51 0 50 0 -3 -47 -3 -48 -47 -3 -48 -3 0 -50 0 -49 -50 0 -50 0 -1 -217 c-1
-304 3 -278 -39 -279 -63 -1 -60 -13 -60 252 l0 244 50 0 50 0 0 250 0 250 50
0 50 0 0 250 0 250 -50 0 -50 0 0 -149 0 -150 -47 -3 -48 -3 -3 -97 -3 -97
-47 -3 -47 -3 -3 -347 -2 -348 -50 0 -50 0 0 -100 0 -100 -50 0 -50 0 0 250 0
250 50 0 50 0 0 250 0 250 50 0 50 0 0 200 0 200 50 0 50 0 0 250 0 250 50 0
50 0 0 150 0 150 50 0 50 0 0 50 0 50 -100 0 -100 0 0 100 0 100 -56 0 c-36 0
-53 -4 -49 -10 4 -7 -3 -9 -22 -5 -27 5 -27 5 -3 -5 23 -9 25 -15 25 -84 1
-41 -2 -73 -6 -70 -4 2 -7 35 -6 72 l1 67 -44 3 c-31 2 -40 6 -30 13 13 7 12
9 -2 9 -23 0 -33 34 -33 114 l0 70 -33 7 c-18 3 -35 3 -38 -2 -2 -4 -16 -4
-31 2 -17 6 -30 6 -38 -1 -6 -5 -15 -7 -18 -3 -4 3 -7 -12 -7 -34 0 -45 -10
-53 -65 -53 -18 0 -39 7 -46 17 -15 17 -20 93 -6 93 4 0 7 5 7 11 0 5 -4 7
-10 4 -5 -3 -10 -1 -10 4 0 6 6 11 13 11 9 0 8 3 -2 9 -9 6 -10 11 -2 15 6 4
10 17 10 29 -1 17 -2 18 -6 5 -4 -16 -19 -18 -146 -16 l-142 2 140 6 140 5
-95 7 c-52 4 -184 6 -292 5 l-198 -2 0 53 0 52 300 0 300 0 0 50 0 50 300 0
300 0 0 -50z m-2020 -160 c-12 -8 -9 -10 13 -10 16 0 26 -4 22 -10 -3 -6 1
-13 10 -16 13 -6 14 -8 3 -15 -7 -5 -17 -9 -23 -9 -5 0 -4 4 3 9 10 6 10 10
-2 20 -8 7 -20 10 -26 6 -5 -3 -10 -4 -10 -1 0 2 -3 11 -6 20 -4 11 0 16 12
16 16 0 17 -2 4 -10z m-38 -7 c-6 -2 -9 -10 -6 -15 4 -6 2 -8 -4 -4 -6 3 -13
2 -17 -4 -3 -5 3 -10 14 -10 10 0 22 6 25 13 3 6 4 3 3 -8 -2 -13 -9 -19 -20
-17 -12 2 -15 -2 -10 -14 4 -12 2 -15 -8 -12 -22 7 -23 48 -2 63 10 8 23 14
28 14 6 0 4 -3 -3 -6z m1116 2 c-3 -3 -44 -7 -92 -9 -50 -2 -82 1 -74 5 14 9
175 13 166 4z m-218 -12 c-8 -3 -22 -11 -30 -17 -13 -10 -13 -9 -1 7 7 9 21
17 30 16 13 0 14 -1 1 -6z m260 -3 c0 -5 -4 -10 -9 -10 -6 0 -13 5 -16 10 -3
6 1 10 9 10 9 0 16 -4 16 -10z m-211 -51 c-11 -7 -11 -9 3 -9 22 0 31 -32 22
-73 -8 -39 -19 -47 -64 -47 -49 0 -57 9 -61 62 -3 39 -1 49 16 57 11 5 14 10
8 10 -7 1 -13 4 -13 9 0 4 23 5 51 3 35 -2 47 -6 38 -12z m-909 7 c0 -3 -4 -8
-10 -11 -5 -3 -10 -1 -10 4 0 6 5 11 10 11 6 0 10 -2 10 -4z m735 -36 c3 -5 1
-10 -4 -10 -6 0 -11 5 -11 10 0 6 2 10 4 10 3 0 8 -4 11 -10z m65 -54 c0 -52
-6 -43 -13 18 -3 30 -1 43 4 35 5 -8 9 -32 9 -53z m-73 -23 c-3 -10 -5 -4 -5
12 0 17 2 24 5 18 2 -7 2 -21 0 -30z m-1205 -60 c3 -27 3 -51 1 -55 -2 -5 -26
-8 -54 -8 l-49 0 0 55 0 55 49 0 49 0 4 -47z m98 -33 c0 -74 -2 -81 -22 -90
l-23 -9 23 0 c13 -1 21 -5 17 -11 -6 -10 -34 -11 -132 -3 -46 3 -63 9 -63 19
0 16 17 19 22 4 2 -6 27 -13 57 -17 41 -5 57 -3 65 9 6 8 18 17 26 20 21 8 16
148 -6 148 -10 0 -14 -13 -14 -45 0 -25 -5 -45 -10 -45 -6 0 -10 6 -9 13 1 6
0 28 -1 47 l-3 35 -7 -40 -7 -40 -2 43 -1 42 45 0 45 0 0 -80z m1037 18 c-2
-13 -4 -3 -4 22 0 25 2 35 4 23 2 -13 2 -33 0 -45z m400 -40 c-3 -8 -6 -5 -6
6 -1 11 2 17 5 13 3 -3 4 -12 1 -19z m20 -20 c-3 -8 -6 -5 -6 6 -1 11 2 17 5
13 3 -3 4 -12 1 -19z m-40 -20 c-3 -7 -5 -2 -5 12 0 14 2 19 5 13 2 -7 2 -19
0 -25z m-1552 12 c-3 -5 -12 -10 -20 -10 -8 0 -17 5 -20 10 -4 6 5 10 20 10
15 0 24 -4 20 -10z m65 6 c0 -11 -19 -15 -25 -6 -3 5 1 10 9 10 9 0 16 -2 16
-4z m1507 -28 c-3 -7 -5 -2 -5 12 0 14 2 19 5 13 2 -7 2 -19 0 -25z m700 6
c-3 -3 -12 -4 -19 -1 -8 3 -5 6 6 6 11 1 17 -2 13 -5z m-2282 -14 c-3 -5 -12
-10 -18 -10 -7 0 -6 4 3 10 19 12 23 12 15 0z m1558 -15 c-3 -9 -8 -14 -10
-11 -3 3 -2 9 2 15 9 16 15 13 8 -4z m80 8 c-7 -2 -19 -2 -25 0 -7 3 -2 5 12
5 14 0 19 -2 13 -5z m437 -4 c0 -4 -10 -9 -23 -11 -14 -3 -24 0 -24 8 0 6 11
11 24 10 12 0 23 -4 23 -7z m-65 -9 c-4 -6 -70 -9 -173 -8 l-167 2 170 6 c94
3 171 7 173 8 2 1 0 -2 -3 -8z m148 3 c-7 -2 -19 -2 -25 0 -7 3 -2 5 12 5 14
0 19 -2 13 -5z m75 0 c-10 -2 -26 -2 -35 0 -10 3 -2 5 17 5 19 0 27 -2 18 -5z
m-605 -10 c-7 -2 -19 -2 -25 0 -7 3 -2 5 12 5 14 0 19 -2 13 -5z m630 -24 c5
-9 7 -32 3 -52 l-7 -37 -106 0 -106 0 5 -87 c3 -49 3 -71 1 -50 l-4 37 -100 0
-99 0 0 -50 0 -50 50 0 50 0 0 -50 0 -50 -50 0 -50 0 0 50 0 50 -100 0 -100 0
0 50 0 50 -50 0 -50 0 0 50 0 50 248 2 247 3 3 53 3 53 101 -3 c79 -2 103 -6
111 -19z m-2413 -39 l0 -50 100 0 100 0 0 -150 0 -150 -200 1 -200 1 0 149 0
149 50 0 50 0 0 50 0 50 50 0 50 0 0 -50z m2277 -227 c-2 -16 -4 -3 -4 27 0
30 2 43 4 28 2 -16 2 -40 0 -55z m-30 -35 c-3 -7 -5 -2 -5 12 0 14 2 19 5 13
2 -7 2 -19 0 -25z m233 -38 c0 -5 -4 -10 -10 -10 -5 0 -10 5 -10 10 0 6 5 10
10 10 6 0 10 -4 10 -10z m-780 -100 l0 -50 50 0 50 0 0 -50 0 -50 50 0 50 0 0
-50 0 -50 50 0 50 0 0 -200 0 -200 -50 0 -50 0 0 -50 0 -50 -50 0 -50 0 0 -50
0 -50 -50 0 -50 0 0 -50 0 -50 -250 0 -250 0 0 50 0 50 100 0 100 0 0 50 0 50
50 0 50 0 0 50 0 50 50 0 50 0 0 200 0 200 -50 0 -50 0 0 50 0 50 -50 0 -50 0
0 50 0 50 -100 0 -100 0 0 50 0 50 250 0 250 0 0 -50z m-1116 -62 c-3 -4 0 -8
5 -8 6 0 11 -18 11 -40 l0 -40 -50 0 -50 0 0 -100 0 -100 -50 0 -50 0 0 100 0
100 50 0 50 0 0 34 c0 55 7 64 50 63 21 -1 37 -5 34 -9z m416 -138 l0 -50 50
0 50 0 0 -50 0 -50 50 0 50 0 0 -50 0 -50 -50 0 -50 0 0 -50 0 -50 -50 0 -50
0 0 -50 0 -50 -50 0 -50 0 0 50 0 50 -50 0 -50 0 0 50 0 50 -50 0 -50 0 0 50
0 50 50 0 50 0 0 50 0 50 50 0 50 0 0 50 0 50 50 0 50 0 0 -50z m400 -300 l0
-50 -50 0 -50 0 0 50 0 50 50 0 50 0 0 -50z m-600 -200 l0 -50 -50 0 -50 0 0
50 0 50 50 0 50 0 0 -50z m100 -200 l0 -50 50 0 50 0 0 -50 0 -50 50 0 50 0 0
-50 0 -50 -50 0 -50 0 0 -50 0 -50 -50 0 -50 0 0 -50 0 -50 -50 0 -50 0 0 50
0 50 -50 0 -50 0 0 50 0 50 -50 0 -50 0 0 50 0 50 50 0 50 0 0 50 0 50 50 0
50 0 0 50 0 50 50 0 50 0 0 -50z m1200 0 l0 -50 -50 0 -50 0 0 -51 0 -50 -47
3 -48 3 -3 48 -3 47 50 0 51 0 0 50 0 50 50 0 50 0 0 -50z m37 -85 c0 -8 -4
-12 -9 -9 -5 3 -6 10 -3 15 9 13 12 11 12 -6z m25 -15 c3 -16 1 -30 -4 -30 -4
0 -8 14 -8 30 0 17 2 30 4 30 2 0 6 -13 8 -30z m-862 -200 l0 -50 -50 0 -50 0
0 50 0 50 50 0 50 0 0 -50z m-1400 -650 l0 -100 -50 0 -50 0 0 -100 0 -100
-50 0 -50 0 0 -50 0 -50 -52 -2 c-29 -1 -73 -3 -98 -3 -36 -1 -45 -5 -47 -21
-2 -10 0 -13 3 -6 3 7 24 12 50 12 41 0 44 -2 44 -26 0 -26 -1 -26 -52 -22
-29 3 -47 3 -39 0 10 -3 10 -6 1 -12 -6 -4 11 -5 39 -2 34 3 51 1 51 -7 0 -7
-32 -11 -100 -11 l-100 0 0 -50 0 -50 -50 0 -50 0 0 100 0 100 62 0 c48 0 59
3 50 12 -8 8 -12 56 -12 151 l0 139 88 -2 c48 -1 115 -2 150 -1 l62 1 0 50 0
50 50 0 50 0 0 50 0 50 50 0 50 0 0 -100z m2200 -200 l0 -200 -50 0 -50 0 0
-50 0 -50 -50 0 c-47 0 -50 -2 -50 -26 0 -14 4 -23 10 -19 6 3 10 1 10 -4 0
-6 -6 -12 -12 -13 -7 -1 12 -4 42 -8 l55 -7 -47 -1 c-27 -1 -48 -6 -48 -12 0
-6 -109 -10 -307 -10 l-308 0 3 49 4 50 46 3 47 3 3 47 3 47 47 3 47 3 3 48 3
47 150 0 149 0 0 50 0 50 50 0 50 0 0 50 0 50 50 0 50 0 0 50 0 50 50 0 50 0
0 -200z m499 -100 l-1 -100 -43 0 c-33 0 -45 -4 -48 -17 -3 -10 -5 35 -6 100
l-1 117 50 0 51 0 -2 -100z m-379 25 l3 30 4 -27 c2 -16 9 -28 14 -28 5 0 10
12 10 28 l2 27 4 -27 c6 -40 21 -34 25 10 2 26 6 12 13 -48 l10 -85 48 -3 47
-3 0 -99 c0 -94 1 -99 23 -103 12 -2 -11 -2 -50 1 l-73 5 0 -111 c0 -102 -8
-137 -28 -117 -3 3 0 10 8 15 13 8 13 10 -1 10 -11 0 -18 -11 -21 -30 -5 -32
4 -46 23 -34 8 4 7 9 -2 15 -11 7 -10 9 4 9 9 0 17 -4 17 -8 0 -5 -8 -16 -17
-24 -16 -14 -20 -14 -37 3 -11 11 -14 19 -8 19 7 0 12 10 12 23 0 21 -4 22
-72 22 -80 0 -74 6 -77 -72 -1 -21 -6 -23 -51 -23 l-50 0 0 40 0 40 -122 2
-123 1 158 7 c86 5 164 10 172 14 11 4 15 19 13 53 l-1 48 -7 -45 -7 -45 -1
43 -2 42 -40 0 -40 0 0 -50 0 -50 -112 0 c-62 0 -130 -3 -150 -6 l-38 -7 0 57
0 56 150 0 150 0 0 49 0 50 -37 4 c-21 2 1 2 50 -1 l87 -5 0 102 0 101 50 0
50 0 1 88 c2 68 3 78 9 47 7 -37 7 -38 10 -10z m-2220 -75 l0 -50 -50 0 -50 0
0 50 0 50 50 0 50 0 0 -50z m300 0 l0 -50 -50 0 -50 0 0 50 0 50 50 0 50 0 0
-50z m2264 -99 c4 -5 -2 -7 -12 -5 -15 4 -17 -1 -14 -40 3 -29 0 -46 -7 -46
-7 0 -11 20 -11 50 0 43 3 50 19 50 11 0 22 -4 25 -9z m-7 -83 c-2 -13 -4 -5
-4 17 -1 22 1 32 4 23 2 -10 2 -28 0 -40z m34 -26 c-11 -4 -11 -6 0 -13 11 -7
11 -9 -2 -9 -9 0 -20 -7 -23 -16 -4 -9 -9 -14 -12 -11 -6 6 16 48 31 59 5 4
12 4 15 1 3 -3 -1 -8 -9 -11z m109 -243 l0 -199 -105 0 c-60 0 -105 4 -105 10
0 5 -39 11 -87 13 l-88 3 93 2 92 2 0 30 c0 17 -4 30 -10 30 -5 0 -10 8 -10
18 0 14 2 15 10 2 8 -12 10 -11 10 6 0 12 7 21 15 21 8 0 15 -4 15 -9 0 -4 -4
-8 -10 -8 -5 0 -10 -3 -10 -7 0 -5 19 -8 43 -8 l42 0 3 137 c2 85 -1 139 -8
143 -6 4 -7 -1 -4 -12 5 -14 4 -15 -4 -4 -19 27 -3 36 58 33 l60 -4 0 -199z
m-160 192 c0 -5 -9 -7 -20 -4 -11 3 -20 7 -20 9 0 2 9 4 20 4 11 0 20 -4 20
-9z m-2940 -141 l0 -50 -44 0 c-25 0 -48 -4 -51 -10 -3 -5 0 -10 7 -10 9 0 9
-3 -2 -10 -11 -7 -11 -10 -2 -10 10 0 10 -5 2 -20 -6 -11 -8 -25 -5 -30 3 -6
49 -10 101 -10 91 0 94 -1 95 -22 1 -22 1 -22 9 2 4 14 8 19 9 11 1 -10 4 -11
14 -3 9 7 23 8 43 3 l29 -9 -35 -2 -35 -2 30 -7 c25 -5 31 -12 33 -39 l3 -32
100 0 99 0 0 -50 0 -50 -150 1 -150 0 0 49 0 50 -100 0 -100 0 0 50 0 50 -50
0 -50 0 0 50 0 50 -50 0 -50 0 0 50 0 50 150 0 150 0 0 -50z m2099 -93 c0 -21
-1 -21 -9 -2 -12 28 -12 37 0 30 6 -3 10 -16 9 -28z m465 24 c18 -7 18 -8 3
-14 -10 -4 -17 -2 -17 4 0 6 -9 9 -20 6 -11 -3 -20 -1 -20 4 0 11 27 11 54 0z
m421 -1 c3 -6 -1 -7 -9 -4 -18 7 -21 14 -7 14 6 0 13 -4 16 -10z m-868 -32
c-3 -7 -5 -2 -5 12 0 14 2 19 5 13 2 -7 2 -19 0 -25z m510 26 c-3 -3 -12 -4
-19 -1 -8 3 -5 6 6 6 11 1 17 -2 13 -5z m-434 -21 c-7 -2 -21 -2 -30 0 -10 3
-4 5 12 5 17 0 24 -2 18 -5z m165 0 c-21 -2 -57 -2 -80 0 -24 2 -7 4 37 4 44
0 63 -2 43 -4z m629 1 c-3 -3 -12 -4 -19 -1 -8 3 -5 6 6 6 11 1 17 -2 13 -5z
m-720 -36 c-3 -8 -6 -5 -6 6 -1 11 2 17 5 13 3 -3 4 -12 1 -19z m20 0 c-3 -8
-6 -5 -6 6 -1 11 2 17 5 13 3 -3 4 -12 1 -19z m-2330 6 c-3 -3 -12 -4 -19 -1
-8 3 -5 6 6 6 11 1 17 -2 13 -5z m2580 0 c-3 -3 -12 -4 -19 -1 -8 3 -5 6 6 6
11 1 17 -2 13 -5z m163 -14 c0 -5 -5 -10 -11 -10 -5 0 -7 5 -4 10 3 6 8 10 11
10 2 0 4 -4 4 -10z m190 -60 c0 -5 -10 -10 -22 -9 -22 0 -22 1 -3 9 11 5 21 9
23 9 1 1 2 -3 2 -9z"/>
<path d="M4300 5151 c0 -56 15 -68 70 -56 l30 7 0 -51 0 -51 50 0 50 0 0 100
0 100 -100 0 -100 0 0 -49z"/>
<path d="M4618 2323 c7 -3 16 -2 19 1 4 3 -2 6 -13 5 -11 0 -14 -3 -6 -6z"/>
<path d="M1990 4480 c41 -4 84 -3 95 1 12 4 -19 7 -75 7 l-95 -1 75 -7z"/>
<path d="M2023 4453 c15 -2 39 -2 55 0 15 2 2 4 -28 4 -30 0 -43 -2 -27 -4z"/>
<path d="M2087 4433 c-4 -3 -7 -11 -7 -17 0 -6 5 -5 12 2 6 6 9 14 7 17 -3 3
-9 2 -12 -2z"/>
<path d="M1514 2350 c1 -10 13 -15 36 -16 34 -2 34 -1 3 3 -17 2 -34 10 -36
16 -2 7 -3 5 -3 -3z"/>
<path d="M1523 2313 c15 -2 39 -2 55 0 15 2 2 4 -28 4 -30 0 -43 -2 -27 -4z"/>
<path d="M1424 2205 c1 -77 3 -90 19 -93 15 -3 17 7 19 85 l2 88 6 -95 6 -95
2 98 c2 80 -1 97 -13 97 -12 0 -15 -16 -15 -85 0 -112 -18 -110 -23 3 l-3 87
0 -90z"/>
<path d="M1538 2063 c12 -2 30 -2 40 0 9 3 -1 5 -23 4 -22 0 -30 -2 -17 -4z"/>
<path d="M1710 1541 c11 -8 11 -11 2 -11 -10 0 -10 -3 0 -14 7 -8 17 -12 22
-9 4 3 3 9 -4 13 -6 4 -11 11 -10 16 1 5 -4 10 -12 12 -9 2 -8 0 2 -7z"/>
<path d="M1830 1450 c0 -13 6 -16 25 -12 14 2 25 8 25 12 0 4 -11 10 -25 12
-19 4 -25 1 -25 -12z"/>
<path d="M2113 5355 c0 -22 2 -30 4 -17 2 12 2 30 0 40 -3 9 -5 -1 -4 -23z"/>
<path d="M2133 5355 c0 -22 2 -30 4 -17 2 12 2 30 0 40 -3 9 -5 -1 -4 -23z"/>
<path d="M2151 5355 c0 -31 2 -36 9 -20 8 18 9 17 9 -7 1 -18 6 -28 16 -28 8
0 15 5 15 11 0 5 -4 7 -10 4 -6 -4 -10 11 -10 37 0 28 -3 38 -9 29 -7 -11 -9
-11 -14 0 -3 8 -5 -4 -6 -26z"/>
<path d="M2123 5285 c1 -12 10 -20 22 -20 15 0 19 -6 18 -22 -2 -13 3 -23 10
-23 8 0 7 -4 -3 -10 -9 -6 -10 -10 -3 -10 18 0 27 21 14 30 -9 5 -8 12 6 25
16 17 16 18 1 12 -10 -3 -20 -2 -23 3 -3 5 3 11 12 13 10 2 4 2 -14 0 -19 -2
-33 1 -37 9 -3 7 -5 4 -3 -7z"/>
<path d="M2911 5274 c0 -11 3 -14 6 -6 3 7 2 16 -1 19 -3 4 -6 -2 -5 -13z"/>
<path d="M2190 5180 c-2 -18 -4 -20 -7 -7 -2 9 -8 17 -13 17 -5 0 -7 -7 -4
-15 4 -9 1 -15 -7 -15 -34 0 11 -18 56 -22 28 -3 44 -3 38 -1 -7 3 -13 11 -13
19 0 9 -4 12 -10 9 -5 -3 -10 2 -10 12 0 14 -2 15 -9 4 -7 -11 -10 -10 -14 5
-4 15 -5 14 -7 -6z"/>
<path d="M2300 5186 c0 -17 53 -28 82 -16 19 7 14 9 -25 9 -29 1 -46 5 -42 11
3 6 1 10 -4 10 -6 0 -11 -6 -11 -14z"/>
<path d="M2268 5183 c7 -3 16 -2 19 1 4 3 -2 6 -13 5 -11 0 -14 -3 -6 -6z"/>
<path d="M2269 5151 c10 -10 20 -23 22 -29 3 -7 23 -8 59 -3 l55 9 -47 1 c-36
1 -50 6 -58 21 -6 11 -20 20 -30 20 -20 0 -20 0 -1 -19z"/>
<path d="M2475 5160 c-3 -5 -1 -10 4 -10 6 0 11 5 11 10 0 6 -2 10 -4 10 -3 0
-8 -4 -11 -10z"/>
<path d="M2120 5150 c-13 -8 -12 -10 3 -10 9 0 17 5 17 10 0 12 -1 12 -20 0z"/>
<path d="M2423 5153 c9 -2 23 -2 30 0 6 3 -1 5 -18 5 -16 0 -22 -2 -12 -5z"/>
<path d="M2697 5103 c-1 -1 0 -24 1 -52 l4 -51 49 0 49 0 0 49 0 49 -51 4
c-28 1 -51 2 -52 1z"/>
<path d="M4313 4383 c4 -3 2 -12 -4 -19 -15 -18 4 -26 44 -19 23 5 33 12 34
26 2 16 -5 19 -39 19 -23 0 -38 -3 -35 -7z"/>
<path d="M4317 4318 c15 -7 30 -7 50 0 26 10 24 10 -22 11 -42 0 -46 -2 -28
-11z"/>
<path d="M4200 3950 l0 -350 50 0 50 0 0 155 0 156 50 -7 c46 -6 50 -5 50 14
0 17 -8 22 -37 25 l-38 4 38 1 c25 1 37 7 37 17 0 8 -5 15 -11 15 -5 0 -7 -4
-4 -10 3 -5 1 -10 -4 -10 -6 0 -11 5 -11 11 0 8 -13 10 -37 6 -26 -5 -33 -3
-23 3 10 6 11 10 3 10 -10 0 -13 38 -13 155 l0 155 -50 0 -50 0 0 -350z m113
-10 c-3 -11 -7 -20 -9 -20 -2 0 -4 9 -4 20 0 11 4 20 9 20 5 0 7 -9 4 -20z
m40 -17 c-7 -2 -19 -2 -25 0 -7 3 -2 5 12 5 14 0 19 -2 13 -5z"/>
<path d="M2120 3256 c0 -9 30 -14 35 -6 4 6 -3 10 -14 10 -12 0 -21 -2 -21 -4z"/>
<path d="M1323 2884 c-8 -4 -9 -13 -4 -27 4 -12 6 -28 4 -34 -3 -7 0 -13 5
-13 5 0 9 18 9 40 -1 22 -1 40 -1 39 -1 0 -6 -3 -13 -5z"/>
<path d="M1356 2879 c3 -5 1 -9 -5 -9 -5 0 -8 -8 -6 -17 2 -10 4 -21 4 -25 1
-5 11 -8 24 -7 l22 0 -22 9 c-28 12 -30 24 -3 17 11 -3 20 -1 20 4 0 5 -8 9
-17 10 -12 1 -9 4 7 8 l25 7 -27 6 c-15 3 -25 1 -22 -3z"/>
<path d="M3292 2820 c0 -14 2 -19 5 -12 2 6 2 18 0 25 -3 6 -5 1 -5 -13z"/>
<path d="M1375 2794 c9 -9 19 -13 23 -10 3 4 0 11 -8 16 -24 15 -33 11 -15 -6z"/>
<path d="M1310 2790 c0 -5 5 -10 10 -10 6 0 10 5 10 10 0 6 -4 10 -10 10 -5 0
-10 -4 -10 -10z"/>
<path d="M1342 2780 c0 -14 2 -19 5 -12 2 6 2 18 0 25 -3 6 -5 1 -5 -13z"/>
<path d="M3600 2750 l0 -50 -100 0 -100 0 0 -50 0 -50 100 0 100 0 0 50 0 50
50 0 50 0 0 50 0 50 -50 0 -50 0 0 -50z"/>
<path d="M1290 2770 c8 -5 22 -10 30 -10 13 0 13 1 0 10 -8 5 -22 10 -30 10
-13 0 -13 -1 0 -10z"/>
<path d="M3071 2744 c0 -11 3 -14 6 -6 3 7 2 16 -1 19 -3 4 -6 -2 -5 -13z"/>
<path d="M3026 2718 c3 -4 11 -5 19 -1 21 7 19 12 -4 10 -11 0 -18 -5 -15 -9z"/>
</g>
</svg>
